STARTFONT 2.1
COMMENT Exported by Fony v1.4.7
FONT ticket_master
SIZE 12 96 96
FONTBOUNDINGBOX 12 11 0 0
STARTPROPERTIES 6
COPYRIGHT "SerovSoft 2019"
RESOLUTION_X 96
RESOLUTION_Y 96
FONT_ASCENT 12
FONT_DESCENT 0
DEFAULT_CHAR 0
ENDPROPERTIES
CHARS 52
STARTCHAR 033
ENCODING 33
SWIDTH 864 0
DWIDTH 12 0
BBX 12 12 0 0
BITMAP
0F00
3FC0
79E0
79E0
F9F0
F9F0
F9F0
FFF0
79E0
79E0
3FC0
0F00
ENDCHAR
STARTCHAR 034
ENCODING 34
SWIDTH 864 0
DWIDTH 12 0
BBX 12 12 0 0
BITMAP
0F00
3FC0
79E0
79E0
FFF0
F9F0
F9F0
F9F0
79E0
79E0
3FC0
0F00
ENDCHAR
STARTCHAR 035
ENCODING 35
SWIDTH 864 0
DWIDTH 12 0
BBX 12 12 0 0
BITMAP
0F00
39C0
70E0
6660
E670
FCF0
F9F0
F9F0
7FE0
79E0
39C0
0F00
ENDCHAR
STARTCHAR 036
ENCODING 36
SWIDTH 864 0
DWIDTH 12 0
BBX 9 9 2 1
BITMAP
FF00
8180
8180
8180
8180
8180
8180
FF80
7F80
ENDCHAR
STARTCHAR 037
ENCODING 37
SWIDTH 864 0
DWIDTH 12 0
BBX 10 9 2 1
BITMAP
FF40
81C0
C180
E380
B780
9D80
8980
FF80
7F80
ENDCHAR
STARTCHAR 038
ENCODING 38
SWIDTH 864 0
DWIDTH 12 0
BBX 9 11 1 1
BITMAP
0200
0300
FF80
FF80
0300
2200
6000
FF80
FF80
6000
2000
ENDCHAR
STARTCHAR 039
ENCODING 39
SWIDTH 864 0
DWIDTH 12 0
BBX 11 9 1 2
BITMAP
3180
7980
FD80
3180
3180
3180
37E0
33C0
3180
ENDCHAR
STARTCHAR 040
ENCODING 40
SWIDTH 864 0
DWIDTH 12 0
BBX 11 12 0 0
BITMAP
7FC0
8020
9FA0
90A0
84A0
BEA0
BEA0
84A0
90A0
9FA0
8020
7FC0
ENDCHAR
STARTCHAR 041
ENCODING 41
SWIDTH 864 0
DWIDTH 12 0
BBX 11 12 0 0
BITMAP
7FC0
8020
87A0
84A0
90A0
BEA0
BEA0
90A0
84A0
87A0
8020
7FC0
ENDCHAR
STARTCHAR 042
ENCODING 42
SWIDTH 864 0
DWIDTH 12 0
BBX 12 12 0 0
BITMAP
7FE0
8010
8010
88D0
98D0
BFD0
BFD0
9810
8810
8010
8010
7FE0
ENDCHAR
STARTCHAR 043
ENCODING 43
SWIDTH 864 0
DWIDTH 12 0
BBX 12 12 0 0
BITMAP
7FE0
8010
8010
9230
B370
FDD0
FDD0
B370
9230
8010
8010
7FE0
ENDCHAR
STARTCHAR 044
ENCODING 44
SWIDTH 864 0
DWIDTH 12 0
BBX 12 12 0 0
BITMAP
7FE0
8010
8810
9810
BFD0
FFD0
BFD0
9810
8810
8010
8010
7FE0
ENDCHAR
STARTCHAR 045
ENCODING 45
SWIDTH 864 0
DWIDTH 12 0
BBX 12 12 0 0
BITMAP
7FE0
8010
8110
8190
BFD0
BFF0
BFD0
8190
8110
8010
8010
7FE0
ENDCHAR
STARTCHAR 046
ENCODING 46
SWIDTH 864 0
DWIDTH 12 0
BBX 12 12 0 0
BITMAP
7FE0
8410
8E10
9F10
BF90
8E10
8E10
8E10
8E10
8E10
8010
7FE0
ENDCHAR
STARTCHAR 047
ENCODING 47
SWIDTH 864 0
DWIDTH 12 0
BBX 12 12 0 0
BITMAP
7FE0
8010
8E10
8E10
8E10
8E10
8E10
BF90
9F10
8E10
8410
7FE0
ENDCHAR
STARTCHAR 048
ENCODING 48
SWIDTH 864 0
DWIDTH 12 0
BBX 7 11 1 1
BITMAP
7C
BA
C6
C6
82
00
82
C6
C6
BA
7C
ENDCHAR
STARTCHAR 049
ENCODING 49
SWIDTH 864 0
DWIDTH 12 0
BBX 2 9 6 2
BITMAP
40
C0
C0
40
00
40
C0
C0
40
ENDCHAR
STARTCHAR 050
ENCODING 50
SWIDTH 864 0
DWIDTH 12 0
BBX 7 11 1 1
BITMAP
7C
3E
06
06
3E
7C
F8
C0
C0
F8
7C
ENDCHAR
STARTCHAR 051
ENCODING 51
SWIDTH 864 0
DWIDTH 12 0
BBX 6 11 2 1
BITMAP
F8
7C
0C
0C
7C
F8
7C
0C
0C
7C
F8
ENDCHAR
STARTCHAR 052
ENCODING 52
SWIDTH 864 0
DWIDTH 12 0
BBX 7 9 1 2
BITMAP
82
C6
C6
FE
7C
3E
06
06
02
ENDCHAR
STARTCHAR 053
ENCODING 53
SWIDTH 864 0
DWIDTH 12 0
BBX 7 11 1 1
BITMAP
7C
F8
C0
C0
F8
7C
3E
06
06
3E
7C
ENDCHAR
STARTCHAR 054
ENCODING 54
SWIDTH 864 0
DWIDTH 12 0
BBX 7 11 1 1
BITMAP
7C
F8
C0
C0
F8
7C
FE
C6
C6
FE
7C
ENDCHAR
STARTCHAR 055
ENCODING 55
SWIDTH 864 0
DWIDTH 12 0
BBX 6 10 2 2
BITMAP
F8
7C
0C
0C
04
00
04
0C
0C
04
ENDCHAR
STARTCHAR 056
ENCODING 56
SWIDTH 864 0
DWIDTH 12 0
BBX 7 11 1 1
BITMAP
7C
FE
C6
C6
FE
7C
FE
C6
C6
FE
7C
ENDCHAR
STARTCHAR 057
ENCODING 57
SWIDTH 864 0
DWIDTH 12 0
BBX 7 11 1 1
BITMAP
7C
FE
C6
C6
FE
7C
3E
06
06
3E
7C
ENDCHAR
STARTCHAR 058
ENCODING 58
SWIDTH 864 0
DWIDTH 12 0
BBX 3 8 3 2
BITMAP
40
E0
40
00
00
40
E0
40
ENDCHAR
STARTCHAR 059
ENCODING 59
SWIDTH 864 0
DWIDTH 12 0
BBX 11 11 0 1
BITMAP
03E0
0C00
11E0
0000
C6E0
6C00
39E0
3800
6C40
C6E0
0040
ENDCHAR
STARTCHAR 060
ENCODING 60
SWIDTH 864 0
DWIDTH 12 0
BBX 3 3 8 1
BITMAP
40
E0
40
ENDCHAR
STARTCHAR 061
ENCODING 61
SWIDTH 864 0
DWIDTH 12 0
BBX 5 5 6 1
BITMAP
38
40
90
B8
90
ENDCHAR
STARTCHAR 062
ENCODING 62
SWIDTH 864 0
DWIDTH 12 0
BBX 7 7 4 1
BITMAP
0E
30
4E
50
A4
AE
A4
ENDCHAR
STARTCHAR 063
ENCODING 63
SWIDTH 864 0
DWIDTH 12 0
BBX 9 9 2 1
BITMAP
0780
1800
2380
4C00
5380
9400
A900
AB80
A900
ENDCHAR
STARTCHAR 064
ENCODING 64
SWIDTH 864 0
DWIDTH 12 0
BBX 11 11 0 1
BITMAP
03E0
0C00
11E0
2600
48E0
5300
94E0
A500
AA40
AAE0
AA40
ENDCHAR
STARTCHAR 065
ENCODING 65
SWIDTH 864 0
DWIDTH 12 0
BBX 7 10 3 1
BITMAP
18
9C
D6
76
3C
3C
76
D6
9C
18
ENDCHAR
STARTCHAR 066
ENCODING 66
SWIDTH 864 0
DWIDTH 12 0
BBX 12 8 0 2
BITMAP
FFE0
8030
9810
9810
8010
9810
8030
FFE0
ENDCHAR
STARTCHAR 067
ENCODING 67
SWIDTH 864 0
DWIDTH 12 0
BBX 12 8 0 2
BITMAP
FFE0
8030
C010
C010
C010
C010
8030
FFE0
ENDCHAR
STARTCHAR 068
ENCODING 68
SWIDTH 864 0
DWIDTH 12 0
BBX 12 8 0 2
BITMAP
FFE0
8030
E010
E010
E010
E010
8030
FFE0
ENDCHAR
STARTCHAR 069
ENCODING 69
SWIDTH 864 0
DWIDTH 12 0
BBX 12 8 0 2
BITMAP
FFE0
8030
F010
F010
F010
F010
8030
FFE0
ENDCHAR
STARTCHAR 070
ENCODING 70
SWIDTH 864 0
DWIDTH 12 0
BBX 12 8 0 2
BITMAP
FFE0
8030
F810
F810
F810
F810
8030
FFE0
ENDCHAR
STARTCHAR 071
ENCODING 71
SWIDTH 864 0
DWIDTH 12 0
BBX 12 8 0 2
BITMAP
FFE0
8030
FC10
FC10
FC10
FC10
8030
FFE0
ENDCHAR
STARTCHAR 072
ENCODING 72
SWIDTH 864 0
DWIDTH 12 0
BBX 12 8 0 2
BITMAP
FFE0
8030
FE10
FE10
FE10
FE10
8030
FFE0
ENDCHAR
STARTCHAR 073
ENCODING 73
SWIDTH 864 0
DWIDTH 12 0
BBX 12 8 0 2
BITMAP
FFE0
8030
FF10
FF10
FF10
FF10
8030
FFE0
ENDCHAR
STARTCHAR 074
ENCODING 74
SWIDTH 864 0
DWIDTH 12 0
BBX 12 8 0 2
BITMAP
FFE0
8030
FF90
FF90
FF90
FF90
8030
FFE0
ENDCHAR
STARTCHAR 075
ENCODING 75
SWIDTH 864 0
DWIDTH 12 0
BBX 12 8 0 2
BITMAP
FFE0
8030
FFD0
FFD0
FFD0
FFD0
8030
FFE0
ENDCHAR
STARTCHAR 076
ENCODING 76
SWIDTH 864 0
DWIDTH 12 0
BBX 12 8 0 2
BITMAP
FFE0
F3F0
C1F0
F030
F030
C1F0
F3F0
FFE0
ENDCHAR
STARTCHAR 077
ENCODING 77
SWIDTH 864 0
DWIDTH 12 0
BBX 8 2 2 2
BITMAP
DB
DB
ENDCHAR
STARTCHAR 078
ENCODING 78
SWIDTH 864 0
DWIDTH 12 0
BBX 11 7 0 2
BITMAP
FFE0
B320
3DC0
BBA0
B7C0
B120
FFE0
ENDCHAR
STARTCHAR 079
ENCODING 79
SWIDTH 864 0
DWIDTH 12 0
BBX 11 7 0 2
BITMAP
FFE0
B3A0
5540
1360
5540
53A0
FFE0
ENDCHAR
STARTCHAR 080
ENCODING 80
SWIDTH 864 0
DWIDTH 12 0
BBX 11 7 0 2
BITMAP
FFE0
5140
5740
11A0
5740
5140
FFE0
ENDCHAR
STARTCHAR 081
ENCODING 81
SWIDTH 864 0
DWIDTH 12 0
BBX 11 7 0 2
BITMAP
FFE0
0000
FFE0
0000
FFE0
0000
FFE0
ENDCHAR
STARTCHAR 082
ENCODING 82
SWIDTH 864 0
DWIDTH 12 0
BBX 9 9 2 1
BITMAP
3E00
4100
8880
8880
8E80
8080
8080
4100
3E00
ENDCHAR
STARTCHAR 083
ENCODING 83
SWIDTH 864 0
DWIDTH 12 0
BBX 9 9 2 1
BITMAP
2200
FF80
FF80
8080
AA80
8080
AA80
8080
FF80
ENDCHAR
STARTCHAR 084
ENCODING 84
SWIDTH 864 0
DWIDTH 12 0
BBX 9 9 2 1
BITMAP
0300
0580
0E80
1F00
3E00
7C00
B800
D000
E000
ENDCHAR
ENDFONT
